<svg width="4816" height="931" viewBox="0 0 4816 931" fill="none" xmlns="http://www.w3.org/2000/svg">
<path d="M292.944 296.957C336.645 296.957 380.346 296.957 425.371 296.957C425.521 318.414 425.671 339.872 425.825 361.979C425.947 375.659 426.072 389.338 426.209 403.018C426.427 424.68 426.632 446.341 426.761 468.004C426.866 485.49 427.029 502.975 427.23 520.46C427.296 527.095 427.342 533.731 427.368 540.367C427.532 618.141 427.532 618.141 463.619 684.801C495.47 714.48 531.638 718.315 573.849 718.315C608.167 715.298 637.427 704.646 661.381 679.44C686.753 648.404 690.723 610.158 691.048 571.21C691.088 568.232 691.128 565.254 691.169 562.185C691.295 552.415 691.394 542.644 691.494 532.873C691.577 526.07 691.661 519.267 691.747 512.463C691.968 494.612 692.166 476.76 692.36 458.908C692.598 437.459 692.863 416.011 693.124 394.563C693.516 362.028 693.873 329.492 694.237 296.957C737.938 296.957 781.639 296.957 826.664 296.957C826.937 338.368 827.158 379.778 827.288 421.189C827.35 440.423 827.435 459.657 827.572 478.891C827.704 497.495 827.775 516.098 827.806 534.703C827.828 541.758 827.871 548.812 827.937 555.867C828.697 641.107 813.12 713.841 754.619 779.245C698.23 834.451 623.668 848.672 547.674 848.15C473.824 846.427 405.019 822.633 353.06 768.288C313.229 718.952 292.187 659.981 292.489 596.722C292.488 593.47 292.487 590.217 292.487 586.867C292.49 576.184 292.521 565.502 292.552 554.819C292.56 547.386 292.565 539.953 292.569 532.52C292.585 513.005 292.624 493.491 292.669 473.977C292.71 454.044 292.728 434.111 292.748 414.179C292.791 375.105 292.862 336.031 292.944 296.957Z" fill="#FE6E47"/>
<path d="M1886.08 80.2588C1917.86 80.2588 1949.64 80.2588 1982.39 80.2588C1982.45 94.2671 1982.5 108.275 1982.57 122.708C1982.77 169.19 1983.03 215.671 1983.33 262.152C1983.51 290.311 1983.67 318.47 1983.78 346.629C1983.88 373.846 1984.05 401.062 1984.25 428.278C1984.31 438.619 1984.36 448.96 1984.38 459.301C1983.52 588.382 1983.52 588.382 2045.09 697.764C2096.61 743.775 2166.96 746.761 2232.58 747.675C2240.12 747.8 2240.12 747.8 2247.81 747.928C2261.05 748.144 2274.29 748.346 2287.54 748.541C2301.09 748.744 2314.65 748.967 2328.21 749.188C2354.73 749.616 2381.24 750.024 2407.76 750.418C2400.57 773.666 2392.17 795.31 2380.92 816.882C2379.64 819.399 2378.35 821.916 2377.03 824.509C2373.92 830.589 2370.78 836.654 2367.63 842.716C2336.16 843.024 2304.68 843.233 2273.21 843.377C2262.53 843.43 2251.84 843.519 2241.16 843.624C2147.91 844.516 2062.96 842.764 1986.4 782.522C1983.94 780.768 1981.49 779.014 1978.95 777.208C1920.83 732.919 1896.36 655.02 1886.08 585.888C1885.74 578.53 1885.59 571.162 1885.59 563.797C1885.59 559.509 1885.58 555.222 1885.58 550.804C1885.59 546.163 1885.61 541.522 1885.62 536.739C1885.62 531.804 1885.62 526.869 1885.62 521.784C1885.62 508.305 1885.64 494.825 1885.67 481.345C1885.7 467.239 1885.7 453.132 1885.7 439.025C1885.72 412.335 1885.75 385.645 1885.79 358.956C1885.83 328.56 1885.86 298.165 1885.88 267.769C1885.92 205.266 1885.99 142.762 1886.08 80.2588Z" fill="#FE6E47"/>
<path d="M2074.68 80.2588C2106.47 80.2588 2138.25 80.2588 2171 80.2588C2171.05 93.9909 2171.11 107.723 2171.17 121.871C2171.37 167.232 2171.64 212.593 2171.94 257.953C2172.12 285.456 2172.28 312.959 2172.39 340.463C2172.49 367.003 2172.65 393.542 2172.85 420.082C2172.92 430.209 2172.97 440.337 2172.99 450.465C2173.03 464.646 2173.14 478.824 2173.27 493.005C2173.26 499.292 2173.26 499.292 2173.26 505.705C2173.53 527.229 2174.38 543.502 2187.05 561.811C2216.06 578.525 2248.6 575.386 2281.1 575.025C2287.08 575.003 2293.06 574.985 2299.05 574.973C2314.7 574.928 2330.34 574.81 2345.99 574.676C2362 574.552 2378 574.498 2394.01 574.437C2425.35 574.309 2456.68 574.103 2488.02 573.849C2485.5 587.133 2482.55 598.434 2476.73 610.655C2475.31 613.651 2473.9 616.646 2472.44 619.732C2470.96 622.799 2469.48 625.867 2467.95 629.027C2466.47 632.157 2464.99 635.286 2463.47 638.511C2452.5 661.538 2452.5 661.538 2447.89 666.147C2440.1 666.587 2432.29 666.745 2424.49 666.793C2419.48 666.832 2414.47 666.87 2409.3 666.91C2403.78 666.93 2398.25 666.947 2392.73 666.962C2387.07 666.985 2381.41 667.008 2375.76 667.031C2363.86 667.073 2351.96 667.097 2340.06 667.111C2324.91 667.133 2309.76 667.229 2294.61 667.343C2282.9 667.419 2271.19 667.439 2259.48 667.445C2253.9 667.457 2248.32 667.489 2242.74 667.542C2193.82 667.974 2153.03 662.46 2114.81 630.03C2087.35 601.065 2074.16 565.523 2074.2 525.674C2074.2 521.729 2074.19 517.785 2074.19 513.721C2074.2 509.441 2074.21 505.16 2074.23 500.75C2074.23 496.206 2074.23 491.663 2074.23 486.982C2074.23 471.978 2074.26 456.975 2074.29 441.971C2074.3 431.563 2074.31 421.155 2074.31 410.747C2074.32 386.161 2074.36 361.575 2074.4 336.988C2074.44 308.99 2074.46 280.992 2074.48 252.993C2074.52 195.415 2074.6 137.837 2074.68 80.2588Z" fill="#FE6E47"/>
<path d="M1075.47 409.319C1075.49 412.356 1075.51 415.392 1075.54 418.521C1075.77 447.271 1076.06 476.019 1076.41 504.767C1076.59 519.543 1076.75 534.319 1076.86 549.096C1076.96 563.382 1077.12 577.666 1077.32 591.951C1077.42 599.998 1077.46 608.047 1077.5 616.095C1077.99 646.905 1078.59 677.678 1098.27 702.89C1101.76 705.559 1101.76 705.559 1105.31 708.282C1107.62 710.144 1109.94 712.007 1112.32 713.925C1126.76 722.62 1140.85 722.811 1157.42 722.719C1161.53 722.706 1165.64 722.693 1169.88 722.68C1176.28 722.63 1176.28 722.63 1182.81 722.578C1187.14 722.56 1191.47 722.542 1195.93 722.523C1206.61 722.476 1217.28 722.41 1227.96 722.327C1225.39 738.238 1220.45 751.6 1213.9 766.297C1211.92 770.759 1209.94 775.221 1207.9 779.817C1204.79 786.743 1204.79 786.743 1201.62 793.808C1199.53 798.502 1197.45 803.197 1195.3 808.033C1190.15 819.602 1184.98 831.162 1179.8 842.715C1121.04 849.365 1061.93 846.404 1012.26 810.706C971.895 776.706 950.046 734.32 943.038 682.198C940.603 644.299 941.432 606.264 941.936 568.311C942.103 554.427 942.174 540.542 942.255 526.658C942.425 499.582 942.698 472.509 943.038 445.435C959.309 440.262 975.589 435.12 991.877 430.005C997.415 428.261 1002.95 426.509 1008.48 424.749C1016.44 422.218 1024.42 419.716 1032.39 417.219C1039.58 414.95 1039.58 414.95 1046.91 412.634C1059.41 409.319 1059.41 409.319 1075.47 409.319Z" fill="#FE6E47"/>
<path d="M2259.28 80.2588C2289.74 80.2588 2320.2 80.2588 2351.58 80.2588C2351.58 188.849 2351.58 297.439 2351.58 409.319C2421.76 409.319 2491.95 409.319 2564.26 409.319C2555.23 436.406 2555.23 436.406 2549.31 448.915C2547.45 452.873 2547.45 452.873 2545.55 456.91C2544.27 459.579 2543 462.248 2541.69 464.999C2540.39 467.761 2539.08 470.523 2537.74 473.369C2534.55 480.115 2531.35 486.854 2528.15 493.591C2495.39 493.777 2462.64 493.919 2429.88 494.006C2414.67 494.048 2399.46 494.105 2384.25 494.196C2369.58 494.283 2354.9 494.331 2340.23 494.352C2334.63 494.367 2329.03 494.396 2323.42 494.439C2315.58 494.497 2307.75 494.501 2299.91 494.502C2295.44 494.52 2290.98 494.537 2286.38 494.556C2275.33 493.591 2275.33 493.591 2263.29 485.565C2259.65 474.634 2258.78 468.373 2258.8 457.148C2258.79 453.823 2258.79 450.497 2258.78 447.071C2258.79 443.437 2258.81 439.803 2258.82 436.059C2258.82 432.221 2258.82 428.384 2258.82 424.43C2258.83 411.727 2258.86 399.025 2258.89 386.323C2258.9 377.523 2258.9 368.723 2258.9 359.923C2258.92 336.747 2258.96 313.572 2259 290.396C2259.05 266.752 2259.06 243.109 2259.08 219.465C2259.13 173.063 2259.2 126.661 2259.28 80.2588Z" fill="#FE6E47"/>
<path d="M943.039 80.2588C986.74 80.2588 1030.44 80.2588 1075.47 80.2588C1075.47 129.257 1075.47 178.255 1075.47 228.737C1116.52 228.737 1157.57 228.737 1199.87 228.737C1199.87 256.547 1199.87 284.356 1199.87 313.009C1168.76 322.975 1137.64 332.921 1106.52 342.832C1092.07 347.436 1077.62 352.047 1063.17 356.679C1049.23 361.148 1035.29 365.595 1021.33 370.027C1016.01 371.721 1010.69 373.423 1005.38 375.134C997.931 377.529 990.474 379.893 983.016 382.255C978.774 383.61 974.532 384.964 970.162 386.36C959.091 389.255 959.091 389.255 943.039 389.255C943.039 287.286 943.039 185.317 943.039 80.2588Z" fill="#FE6E47"/>
<path d="M44.1423 296.957C87.8432 296.957 131.544 296.957 176.569 296.957C176.569 408.195 176.569 519.434 176.569 634.043C48.1553 674.173 48.1553 674.173 44.1423 674.173C44.1423 549.691 44.1423 425.21 44.1423 296.957Z" fill="#FE6E47"/>
<path d="M2728.79 80.2588C2747.33 80.2588 2765.87 80.2588 2784.97 80.2588C2785.03 86.7557 2785.09 93.2525 2785.15 99.9463C2785.39 124.156 2785.7 148.364 2786.03 172.573C2786.16 183.031 2786.27 193.489 2786.37 203.947C2786.5 219.02 2786.71 234.091 2786.93 249.162C2786.96 253.804 2786.99 258.445 2787.01 263.227C2787.58 295.013 2790.88 322.188 2809.05 348.874C2829.16 362.701 2851.2 366.235 2875.42 364.409C2894.23 360.917 2908.55 355.852 2921.41 341.099C2935.24 312.579 2935.34 283.404 2935.51 252.298C2935.58 247.361 2935.65 242.424 2935.73 237.337C2935.94 221.68 2936.08 206.022 2936.21 190.364C2936.34 179.701 2936.48 169.04 2936.63 158.378C2936.97 132.338 2937.24 106.299 2937.47 80.2588C2956.01 80.2588 2974.55 80.2588 2993.65 80.2588C2993.92 111.028 2994.14 141.797 2994.27 172.567C2994.33 186.859 2994.42 201.149 2994.56 215.439C2994.71 231.906 2994.77 248.371 2994.82 264.838C2994.89 269.918 2994.95 274.998 2995.01 280.233C2995.02 321.806 2989.23 356.591 2959.41 387.624C2929.86 415.028 2894.32 422.918 2854.4 422.22C2818.02 418.823 2783.98 408.711 2758.03 382.232C2728.43 346.337 2727.06 306.116 2727.62 261.311C2727.64 253.513 2727.64 253.513 2727.67 245.558C2727.72 231.875 2727.83 218.194 2727.97 204.512C2728.09 190.495 2728.15 176.478 2728.21 162.461C2728.33 135.06 2728.55 107.659 2728.79 80.2588Z" fill="#FE6E47"/>
<path d="M2921.41 509.642C2938.63 509.642 2955.84 509.642 2973.58 509.642C2973.58 619.556 2973.58 729.47 2973.58 842.715C2956.37 842.715 2939.15 842.715 2921.41 842.715C2920.09 836.094 2918.76 829.473 2917.4 822.651C2915.27 824.053 2913.14 825.454 2910.94 826.899C2908.11 828.725 2905.27 830.551 2902.35 832.432C2899.56 834.248 2896.76 836.064 2893.89 837.934C2868.24 852.206 2833.53 850.704 2805.73 843.985C2770.97 831.137 2750.03 811.9 2732.59 779.496C2718.22 745.366 2720.59 701.692 2732.7 667.259C2747.25 635.006 2769.34 617.05 2801.03 601.939C2833.29 591.355 2866.72 596.213 2897.1 609.683C2905.36 613.978 2905.36 613.978 2917.4 622.004C2918.72 584.925 2920.05 547.845 2921.41 509.642ZM2797.51 669.407C2782.07 692.568 2776.78 714.902 2780.96 742.392C2787.69 763.693 2796.11 781.756 2816.07 793.055C2836.87 801.265 2856.72 802.519 2878.1 795.783C2897.35 787.282 2907.34 777.357 2917.4 758.444C2925.4 734.441 2925.42 707.583 2914.64 684.455C2904.27 666.664 2892.3 657.024 2873.26 649.091C2845.36 642.116 2817.25 647.16 2797.51 669.407Z" fill="#FE6E47"/>
<path d="M4157.4 613.978C4168.93 623.759 4168.93 623.759 4177.46 634.042C4181.68 638.388 4181.68 638.388 4185.99 642.821C4206.98 674.305 4205.55 704.309 4205.55 742.392C4145.96 742.392 4086.37 742.392 4024.97 742.392C4037.45 776.632 4037.45 776.632 4065.1 794.56C4097.78 797.916 4097.78 797.916 4127.8 787.286C4137.91 778.671 4137.91 778.671 4145.36 766.469C4158.43 765.294 4158.43 765.294 4173.95 765.717C4181.66 765.88 4181.66 765.88 4189.53 766.046C4193.49 766.186 4197.46 766.325 4201.54 766.469C4198.63 792.641 4188.28 805.083 4169.44 822.65C4135.19 848.296 4095.57 850.869 4054.49 845.286C4024.99 838.41 4004.06 821.583 3984.84 798.573C3963.95 764.981 3965.14 724.34 3968.79 686.211C3975.75 656.603 3995.76 629.097 4021.32 612.567C4063.68 590.637 4115.75 589.544 4157.4 613.978ZM4036.01 667.651C4027.5 678.953 4027.5 678.953 4024.97 698.249C4066.02 698.249 4107.07 698.249 4149.37 698.249C4145.2 673.209 4143.59 669.424 4125.29 654.107C4094.93 635.485 4059.39 642.963 4036.01 667.651Z" fill="#FE6E47"/>
<path d="M3828.34 196.633C3849.48 221.744 3860.9 246.596 3863.2 279.4C3863.55 283.921 3863.89 288.442 3864.25 293.1C3864.45 304.983 3864.45 304.983 3860.44 317.021C3802.17 318.346 3743.9 319.67 3683.87 321.034C3695.79 349.275 3695.79 349.275 3715.97 365.176C3737.38 372.311 3757.22 372.206 3777.92 363.17C3781.32 361.184 3784.71 359.197 3788.21 357.151C3790.86 357.151 3793.5 357.151 3796.23 357.151C3797.56 351.854 3798.88 346.556 3800.25 341.099C3820.11 341.099 3839.97 341.099 3860.44 341.099C3852.04 370.512 3846.74 383.922 3822.02 399.976C3781.07 422.457 3743.9 426.536 3698.98 413.661C3672.3 403.223 3648.24 383.969 3636.25 357.495C3621.38 319.692 3617.76 279.602 3631.7 240.776C3647.09 210.264 3668.71 188.798 3700.17 175.315C3704.06 174.404 3707.95 173.494 3711.96 172.556C3716.02 171.563 3720.07 170.569 3724.25 169.546C3760.72 167.231 3799.57 172.566 3828.34 196.633ZM3694.91 238.017C3686.25 250.311 3686.25 250.311 3679.86 272.879C3722.23 272.879 3764.61 272.879 3808.27 272.879C3804.17 246.953 3804.17 246.953 3788.21 228.737C3755.39 210.433 3722.32 209.842 3694.91 238.017Z" fill="#FE6E47"/>
<path d="M3211.6 622.757C3246.75 659.545 3246.46 690.723 3246.46 742.393C3186.87 742.393 3127.28 742.393 3065.88 742.393C3079.83 777.889 3079.83 777.889 3106.01 794.561C3131.49 798.059 3156.77 797.94 3178.24 782.522C3179.88 779.749 3181.51 776.976 3183.2 774.12C3190.28 766.47 3190.28 766.47 3202.87 764.903C3207.57 765.089 3212.27 765.275 3217.12 765.467C3221.85 765.612 3226.58 765.757 3231.46 765.906C3235.09 766.092 3238.71 766.278 3242.45 766.47C3239.01 790.267 3233.55 805.551 3214.28 821.209C3179.89 845.346 3147.59 850.606 3106.01 846.729C3077.85 840.358 3052.31 829.331 3033.78 806.599C3009.98 767.993 3002.4 726.773 3012.44 682.01C3023.66 648.305 3038.66 626.894 3070.39 610.467C3118.57 587.806 3167.72 593.778 3211.6 622.757ZM3081.93 662.134C3069.97 678.728 3069.97 678.728 3065.88 698.25C3108.26 698.25 3150.63 698.25 3194.29 698.25C3184.76 669.423 3184.76 669.423 3163.13 649.625C3136.07 638.933 3102.89 641.698 3081.93 662.134Z" fill="#FE6E47"/>
<path d="M4739.57 199.816C4773.72 235.684 4771.38 266.231 4771.38 317.022C4711.78 317.022 4652.19 317.022 4590.79 317.022C4605.76 355.382 4605.76 355.382 4623.9 365.678C4647.19 371.114 4665.96 372.562 4688.61 364.174C4699.43 358.078 4699.43 358.078 4704.02 348.749C4711.18 341.099 4711.18 341.099 4724.65 339.532C4729.72 339.718 4734.8 339.904 4740.02 340.096C4747.68 340.313 4747.68 340.313 4755.5 340.535C4759.41 340.721 4763.33 340.907 4767.36 341.099C4764.42 367.206 4754.4 379.985 4735.26 397.28C4703.65 418.692 4669.87 423.773 4632.47 419.994C4602.85 414.22 4575.71 401.711 4556.43 377.968C4531.93 339.521 4529.85 299.105 4536.07 254.367C4543.16 227.204 4561.8 206.539 4582.77 188.608C4595.76 181.193 4608.48 176.434 4622.9 172.556C4626.79 171.48 4630.68 170.404 4634.69 169.296C4674.49 166.859 4708.73 173.155 4739.57 199.816ZM4606.85 232.75C4596.71 245.237 4590.79 256.469 4590.79 272.879C4633.17 272.879 4675.55 272.879 4719.21 272.879C4707.52 240.171 4707.52 240.171 4683.09 220.711C4675.44 217.042 4675.44 217.042 4667.04 216.698C4662.74 216.285 4658.43 215.871 4654 215.444C4635.33 217 4621.89 221.521 4606.85 232.75Z" fill="#FE6E47"/>
<path d="M4217.59 188.607C4231.01 201.131 4240.67 214.971 4245.68 232.749C4245.68 239.371 4245.68 245.992 4245.68 252.814C4228.46 252.814 4211.25 252.814 4193.51 252.814C4191.77 249.007 4190.04 245.199 4188.25 241.277C4182.3 227.932 4182.3 227.932 4169.43 220.711C4157.92 219.435 4157.92 219.435 4145.36 219.707C4141.14 219.687 4136.91 219.666 4132.57 219.645C4120.45 219.889 4120.45 219.889 4109.24 228.736C4108.24 241.111 4108.24 241.111 4109.24 252.814C4120.69 259.1 4130.72 262.398 4143.57 264.571C4147.03 265.197 4150.49 265.822 4154.06 266.467C4161.26 267.726 4168.47 268.959 4175.69 270.167C4203 275.174 4219.7 282.215 4238.91 302.976C4250.87 320.692 4251.13 335.887 4249.69 357.15C4241.15 383.226 4229.24 398.509 4205.55 412.328C4167.68 426.622 4126.45 423.364 4089.18 409.318C4068.17 399.272 4057.57 386.202 4047.56 365.427C4044.58 355.669 4044.59 347.23 4045.03 337.086C4062.63 335.713 4079.66 334.906 4097.2 337.086C4107.48 348.623 4107.48 348.623 4113.25 361.163C4130.66 372.691 4149.35 370.716 4169.43 369.189C4181.51 367.265 4181.51 367.265 4189.5 361.163C4194.19 351.738 4194.19 351.738 4193.51 341.098C4187.7 331.138 4184.06 326.007 4173.12 321.942C4169.98 321.43 4166.83 320.918 4163.59 320.391C4160.11 319.773 4156.64 319.155 4153.06 318.518C4147.63 317.653 4147.63 317.653 4142.1 316.77C4104.82 310.589 4080.25 304.002 4057.07 272.879C4048.25 255.241 4050.41 230.994 4055.24 212.261C4064.37 192.834 4079.82 185.273 4098.68 176.349C4136.11 162.909 4184.91 164.139 4217.59 188.607Z" fill="#FE6E47"/>
<path d="M3220.13 183.591C3241.74 202.569 3252.99 225.255 3255.18 253.792C3255.41 264.005 3255.39 274.186 3255.27 284.401C3255.26 288.102 3255.25 291.803 3255.24 295.616C3255.19 307.35 3255.09 319.083 3254.99 330.816C3254.95 338.808 3254.91 346.8 3254.88 354.791C3254.79 374.305 3254.65 393.818 3254.49 413.332C3235.95 413.332 3217.41 413.332 3198.31 413.332C3198.25 408.574 3198.19 403.817 3198.13 398.915C3197.9 381.227 3197.59 363.54 3197.25 345.854C3197.12 338.205 3197.01 330.557 3196.92 322.908C3196.78 311.9 3196.57 300.894 3196.35 289.887C3196.32 286.479 3196.3 283.072 3196.27 279.561C3195.8 260.768 3194.53 247.932 3182.25 232.75C3165.12 221.324 3150.18 222.763 3130.09 224.724C3117.97 227.911 3117.97 227.911 3110.02 236.763C3099.79 259.721 3096.14 278.639 3095.93 303.603C3095.86 306.764 3095.79 309.925 3095.71 313.182C3095.5 323.156 3095.36 333.13 3095.22 343.105C3095.09 349.919 3094.95 356.733 3094.81 363.546C3094.47 380.141 3094.2 396.735 3093.97 413.332C3076.75 413.332 3059.54 413.332 3041.8 413.332C3041.8 335.2 3041.8 257.068 3041.8 176.569C3059.02 176.569 3076.23 176.569 3093.97 176.569C3095.29 181.866 3096.62 187.163 3097.98 192.62C3101.87 190.137 3105.76 187.654 3109.77 185.096C3146.09 164.718 3182.87 164.623 3220.13 183.591Z" fill="#FE6E47"/>
<path d="M3390.93 509.642C3409.47 509.642 3428.01 509.642 3447.11 509.642C3447.11 602.341 3447.11 695.039 3447.11 790.547C3493.46 790.547 3539.81 790.547 3587.56 790.547C3587.56 807.763 3587.56 824.978 3587.56 842.715C3522.67 842.715 3457.78 842.715 3390.93 842.715C3390.93 732.801 3390.93 622.887 3390.93 509.642Z" fill="#FE6E47"/>
<path d="M3378.89 176.569C3397.43 176.569 3415.97 176.569 3435.07 176.569C3450.13 213.058 3463.15 250.185 3476.2 287.426C3478.45 293.817 3480.69 300.207 3482.94 306.598C3488.4 322.108 3493.84 337.622 3499.28 353.138C3500.02 350.985 3500.77 348.832 3501.53 346.614C3509.27 324.283 3517.01 301.957 3524.77 279.635C3527.67 271.294 3530.56 262.952 3533.45 254.609C3537.59 242.642 3541.75 230.681 3545.91 218.721C3547.21 214.967 3548.5 211.213 3549.84 207.346C3551.04 203.891 3552.25 200.437 3553.49 196.878C3554.55 193.821 3555.61 190.765 3556.7 187.616C3559.47 180.582 3559.47 180.582 3563.48 176.569C3572.93 176.277 3582.38 176.233 3591.82 176.318C3597 176.355 3602.18 176.391 3607.52 176.428C3611.52 176.475 3615.53 176.521 3619.66 176.569C3617.08 199.345 3609.2 219.182 3600.9 240.353C3599.43 244.152 3597.96 247.952 3596.44 251.866C3593.33 259.888 3590.21 267.905 3587.08 275.918C3582.33 288.086 3577.61 300.268 3572.9 312.452C3569.86 320.273 3566.82 328.092 3563.78 335.911C3562.38 339.511 3560.99 343.111 3559.55 346.821C3550.76 369.287 3541.33 391.352 3531.38 413.332C3510.19 413.332 3489 413.332 3467.17 413.332C3455.61 387.786 3444.91 362.05 3434.77 335.911C3433.29 332.1 3431.81 328.289 3430.28 324.362C3427.18 316.369 3424.08 308.373 3420.98 300.375C3416.25 288.163 3411.49 275.963 3406.72 263.764C3403.69 255.961 3400.67 248.157 3397.65 240.353C3396.23 236.728 3394.81 233.103 3393.34 229.369C3391.37 224.244 3391.37 224.244 3389.36 219.015C3388.21 216.041 3387.05 213.067 3385.87 210.002C3382.9 200.647 3382.9 200.647 3378.89 176.569Z" fill="#FE6E47"/>
<path d="M4394.16 104.336C4411.38 104.336 4428.59 104.336 4446.33 104.336C4446.33 128.173 4446.33 152.01 4446.33 176.569C4470.16 176.569 4494 176.569 4518.56 176.569C4518.56 192.46 4518.56 208.352 4518.56 224.724C4494.72 224.724 4470.89 224.724 4446.33 224.724C4446.33 271.074 4446.33 317.423 4446.33 365.177C4470.16 365.177 4494 365.177 4518.56 365.177C4518.56 381.068 4518.56 396.959 4518.56 413.332C4504.93 413.657 4491.31 413.896 4477.68 414.085C4473.83 414.185 4469.98 414.286 4466.01 414.39C4439.24 414.668 4425.49 411.31 4405.2 393.267C4392.59 378.856 4393.67 365.541 4393.7 347.155C4393.7 344.531 4393.7 341.907 4393.7 339.203C4393.71 330.539 4393.74 321.876 4393.77 313.213C4393.78 307.202 4393.78 301.191 4393.79 295.18C4393.8 279.367 4393.84 263.553 4393.88 247.74C4393.93 231.601 4393.94 215.461 4393.96 199.322C4394.01 167.66 4394.08 135.998 4394.16 104.336Z" fill="#FE6E47"/>
<path d="M3715.97 509.642C3734.51 509.642 3753.05 509.642 3772.15 509.642C3772.15 602.341 3772.15 695.039 3772.15 790.547C3792.02 790.547 3811.88 790.547 3832.35 790.547C3832.35 807.763 3832.35 824.978 3832.35 842.715C3758.51 845.736 3758.51 845.736 3732.03 826.664C3714.84 808.922 3715.48 790.398 3715.52 766.583C3715.52 763.802 3715.52 761.021 3715.52 758.155C3715.52 748.992 3715.55 739.83 3715.58 730.667C3715.59 724.302 3715.6 717.937 3715.6 711.572C3715.61 694.841 3715.65 678.111 3715.7 661.381C3715.74 644.3 3715.76 627.219 3715.78 610.138C3715.82 576.639 3715.89 543.141 3715.97 509.642Z" fill="#FE6E47"/>
<path d="M3848.4 509.642C3866.94 509.642 3885.48 509.642 3904.58 509.642C3904.58 602.341 3904.58 695.039 3904.58 790.547C3923.12 790.547 3941.66 790.547 3960.76 790.547C3960.76 807.763 3960.76 824.978 3960.76 842.715C3891.48 845.742 3891.48 845.742 3864.45 826.664C3848.32 809.486 3847.9 793.551 3847.94 770.683C3847.94 767.864 3847.94 765.044 3847.94 762.138C3847.95 752.823 3847.98 743.509 3848.01 734.194C3848.02 727.733 3848.02 721.272 3848.03 714.812C3848.04 697.811 3848.08 680.81 3848.12 663.809C3848.17 646.459 3848.18 629.11 3848.2 611.76C3848.25 577.721 3848.32 543.681 3848.4 509.642Z" fill="#FE6E47"/>
<path d="M176.569 690.224C176.569 741.871 176.569 793.517 176.569 846.728C132.868 846.728 89.1674 846.728 44.1423 846.728C44.1423 808.325 44.1423 769.921 44.1423 730.353C69.874 720.704 95.4911 711.851 121.642 703.517C125.607 702.231 129.572 700.946 133.657 699.622C137.457 698.409 141.256 697.195 145.171 695.946C148.602 694.845 152.034 693.745 155.569 692.612C164.53 690.224 164.53 690.224 176.569 690.224Z" fill="#FE6E47"/>
<path d="M3965.69 176.177C3969.82 176.19 3973.96 176.203 3978.23 176.217C3984.73 176.267 3984.73 176.267 3991.36 176.319C3997.91 176.346 3997.91 176.346 4004.59 176.373C4015.4 176.421 4026.2 176.493 4037.01 176.569C4037.01 192.461 4037.01 208.352 4037.01 224.724C4010.52 224.724 3984.04 224.724 3956.75 224.724C3956.75 286.965 3956.75 349.206 3956.75 413.332C3938.21 413.332 3919.67 413.332 3900.57 413.332C3900.27 387.558 3900.05 361.784 3899.91 336.008C3899.85 327.246 3899.77 318.485 3899.66 309.724C3899.51 297.103 3899.45 284.483 3899.39 271.861C3899.33 267.968 3899.27 264.075 3899.21 260.064C3899.2 234.671 3901.27 213.509 3918.77 193.656C3936.1 180.802 3944.26 176.06 3965.69 176.177Z" fill="#FE6E47"/>
<path d="M3611.64 601.939C3630.18 601.939 3648.72 601.939 3667.82 601.939C3667.82 681.395 3667.82 760.852 3667.82 842.715C3649.28 842.715 3630.74 842.715 3611.64 842.715C3611.64 763.259 3611.64 683.803 3611.64 601.939Z" fill="#FE6E47"/>
<path d="M4289.82 176.569C4307.04 176.569 4324.25 176.569 4341.99 176.569C4341.99 254.701 4341.99 332.832 4341.99 413.332C4324.78 413.332 4307.56 413.332 4289.82 413.332C4289.82 335.2 4289.82 257.068 4289.82 176.569Z" fill="#FE6E47"/>
<path d="M3302.64 176.569C3319.86 176.569 3337.07 176.569 3354.81 176.569C3354.81 254.701 3354.81 332.832 3354.81 413.332C3337.6 413.332 3320.38 413.332 3302.64 413.332C3302.64 335.2 3302.64 257.068 3302.64 176.569Z" fill="#FE6E47"/>
<path d="M1536.95 44.1421C1540.93 44.1421 1544.9 44.1421 1548.99 44.1421C1548.99 322.238 1548.99 600.334 1548.99 886.858C1545.02 886.858 1541.05 886.858 1536.95 886.858C1536.95 608.761 1536.95 330.665 1536.95 44.1421Z" fill="#FE6E47"/>
<path d="M4663.03 80.2588C4682.89 80.2588 4702.75 80.2588 4723.22 80.2588C4718.83 97.8181 4710.97 110.301 4701.15 125.153C4698.64 129.014 4698.64 129.014 4696.08 132.952C4683.79 151.79 4683.79 151.79 4679.08 156.504C4670.97 156.795 4662.86 156.841 4654.75 156.755C4650.32 156.719 4645.88 156.683 4641.31 156.646C4636.17 156.576 4636.17 156.576 4630.92 156.504C4633.4 138.233 4640.82 123.259 4649.23 107.095C4651.21 103.212 4651.21 103.212 4653.24 99.2497C4656.48 92.9081 4659.75 86.5819 4663.03 80.2588Z" fill="#FE6E47"/>
<path d="M3346.78 80.2583C3357.19 87.0728 3358.68 91.8236 3362.33 103.834C3362.94 118.986 3360.23 124.727 3350.8 136.439C3340.67 144.12 3335.52 144.481 3322.71 144.214C3307.19 139.366 3302.36 134.632 3294.62 120.388C3294.86 106.009 3295.55 96.5019 3304.15 84.7728C3318.93 74.54 3330.04 76.071 3346.78 80.2583Z" fill="#FE6E47"/>
<path d="M4333.97 80.2583C4344.37 87.0728 4345.86 91.8236 4349.52 103.834C4350.12 118.986 4347.41 124.727 4337.98 136.439C4327.85 144.12 4322.7 144.481 4309.89 144.214C4294.37 139.366 4289.54 134.632 4281.8 120.388C4282.05 106.009 4282.73 96.5019 4291.33 84.7728C4306.11 74.54 4317.22 76.071 4333.97 80.2583Z" fill="#FE6E47"/>
<path d="M3655.78 505.63C3665.81 511.649 3665.81 511.649 3671.83 521.681C3674.26 532.954 3674.48 542.539 3671.83 553.785C3661.63 565.787 3655.15 569.203 3639.73 572.094C3623.13 568.982 3617.46 563.363 3607.63 549.772C3605.12 533.89 3605.18 525.66 3613.65 511.9C3627.79 503.057 3639.53 502.433 3655.78 505.63Z" fill="#FE6E47"/>
</svg>
